<mxfile host="app.diagrams.net" modified="2022-04-08T03:37:19.843Z" agent="5.0 (Windows NT 10.0; Win64; x64) AppleWebKit/537.36 (KHTML, like Gecko) Chrome/100.0.4896.75 Safari/537.36" etag="0qhuh-lhQWXdiIj0TOfG" version="16.5.6" type="github">
  <diagram id="0U4CgZujcyzyxz3d1z1K" name="Page-1">
    <mxGraphModel dx="1237" dy="730" grid="1" gridSize="10" guides="1" tooltips="1" connect="1" arrows="1" fold="1" page="1" pageScale="1" pageWidth="1169" pageHeight="827" math="0" shadow="0">
      <root>
        <mxCell id="0" />
        <mxCell id="1" parent="0" />
        <mxCell id="7Rkt4dnO8JLoOcQxzTcG-1" value="Интернет магазин по бусту аккаунтов&#xa;" style="swimlane;horizontal=0;" vertex="1" parent="1">
          <mxGeometry width="1160" height="770" as="geometry" />
        </mxCell>
        <mxCell id="7Rkt4dnO8JLoOcQxzTcG-2" value="Клиент" style="swimlane;horizontal=0;" vertex="1" parent="7Rkt4dnO8JLoOcQxzTcG-1">
          <mxGeometry x="20" width="1140" height="220" as="geometry" />
        </mxCell>
        <mxCell id="7Rkt4dnO8JLoOcQxzTcG-9" value="Покупатель выбрал товар" style="text;html=1;strokeColor=none;fillColor=none;align=center;verticalAlign=middle;whiteSpace=wrap;rounded=0;" vertex="1" parent="7Rkt4dnO8JLoOcQxzTcG-2">
          <mxGeometry x="45" y="85" width="90" height="30" as="geometry" />
        </mxCell>
        <mxCell id="7Rkt4dnO8JLoOcQxzTcG-10" value="" style="rounded=1;whiteSpace=wrap;html=1;strokeColor=#3399FF;fillColor=#CCFFFF;gradientColor=#CCFFFF;" vertex="1" parent="7Rkt4dnO8JLoOcQxzTcG-2">
          <mxGeometry x="240" y="15" width="120" height="60" as="geometry" />
        </mxCell>
        <mxCell id="7Rkt4dnO8JLoOcQxzTcG-14" value="" style="edgeStyle=orthogonalEdgeStyle;rounded=0;orthogonalLoop=1;jettySize=auto;html=1;" edge="1" parent="7Rkt4dnO8JLoOcQxzTcG-2" source="7Rkt4dnO8JLoOcQxzTcG-12" target="7Rkt4dnO8JLoOcQxzTcG-13">
          <mxGeometry relative="1" as="geometry" />
        </mxCell>
        <mxCell id="7Rkt4dnO8JLoOcQxzTcG-12" value="" style="rhombus;whiteSpace=wrap;html=1;strokeColor=#3399FF;strokeWidth=2;fillColor=#CCFFFF;gradientColor=#CCFFFF;" vertex="1" parent="7Rkt4dnO8JLoOcQxzTcG-2">
          <mxGeometry x="450" y="5" width="80" height="80" as="geometry" />
        </mxCell>
        <mxCell id="7Rkt4dnO8JLoOcQxzTcG-16" value="" style="edgeStyle=orthogonalEdgeStyle;rounded=0;orthogonalLoop=1;jettySize=auto;html=1;" edge="1" parent="7Rkt4dnO8JLoOcQxzTcG-2" source="7Rkt4dnO8JLoOcQxzTcG-13" target="7Rkt4dnO8JLoOcQxzTcG-15">
          <mxGeometry relative="1" as="geometry" />
        </mxCell>
        <mxCell id="7Rkt4dnO8JLoOcQxzTcG-13" value="" style="rounded=1;whiteSpace=wrap;html=1;fillColor=#CCFFFF;strokeColor=#3399FF;strokeWidth=2;gradientColor=#CCFFFF;" vertex="1" parent="7Rkt4dnO8JLoOcQxzTcG-2">
          <mxGeometry x="600" y="17.5" width="100" height="55" as="geometry" />
        </mxCell>
        <mxCell id="7Rkt4dnO8JLoOcQxzTcG-15" value="" style="ellipse;whiteSpace=wrap;html=1;fillColor=#FF9999;strokeColor=#CC0000;rounded=1;strokeWidth=3;gradientColor=#FF9999;" vertex="1" parent="7Rkt4dnO8JLoOcQxzTcG-2">
          <mxGeometry x="950" y="15" width="70" height="60" as="geometry" />
        </mxCell>
        <mxCell id="7Rkt4dnO8JLoOcQxzTcG-19" value="" style="edgeStyle=orthogonalEdgeStyle;rounded=0;orthogonalLoop=1;jettySize=auto;html=1;" edge="1" parent="7Rkt4dnO8JLoOcQxzTcG-2" source="7Rkt4dnO8JLoOcQxzTcG-17" target="7Rkt4dnO8JLoOcQxzTcG-10">
          <mxGeometry relative="1" as="geometry" />
        </mxCell>
        <mxCell id="7Rkt4dnO8JLoOcQxzTcG-17" value="" style="ellipse;whiteSpace=wrap;html=1;fillColor=#99FF33;strokeColor=#009900;rounded=1;strokeWidth=3;gradientColor=#B3FF66;" vertex="1" parent="7Rkt4dnO8JLoOcQxzTcG-2">
          <mxGeometry x="55" y="15" width="70" height="60" as="geometry" />
        </mxCell>
        <mxCell id="7Rkt4dnO8JLoOcQxzTcG-5" value="Администратор" style="swimlane;horizontal=0;" vertex="1" parent="7Rkt4dnO8JLoOcQxzTcG-1">
          <mxGeometry x="20" y="220" width="1140" height="200" as="geometry" />
        </mxCell>
        <mxCell id="7Rkt4dnO8JLoOcQxzTcG-7" value="Команда по бустингу" style="swimlane;horizontal=0;" vertex="1" parent="7Rkt4dnO8JLoOcQxzTcG-1">
          <mxGeometry x="20" y="420" width="1140" height="350" as="geometry" />
        </mxCell>
      </root>
    </mxGraphModel>
  </diagram>
</mxfile>
